#!OML:ASF H:\Not Pregnant\Project 1\Capture day 1\Session 1\non-pregnant.ASF
:FULLY-SPECIFIED
:DEGREES
815
root 4.37966 16.1656 -15.3345 -164.341 188.203 -187.357
lowerback -3.30272 4.08504 9.51958
upperback -6.19009 5.43298 0.539747
thorax -3.82098 2.32924 -4.70174
lowerneck 15.1364 -9.45534 -32.1093
upperneck 1.99423 -19.514 37.361
head 5.66081 -11.3258 18.5796
rclavicle -1.09476e-014 5.24528e-016
rhumerus -33.2141 -7.46667 -87.6812
rradius 26.7271
rwrist 26.4852
rhand -8.47969 -2.27598
rfingers 7.12502
rthumb 17.4472 -31.513
lclavicle -1.09476e-014 5.24528e-016
lhumerus -44.3446 3.87982 81.1903
lradius 30.1154
lwrist 27.0391
lhand -11.982 -9.44463
lfingers 7.12502
lthumb 14.0743 20.0588
rfemur -0.979534 18.0814 28.1815
rtibia 18.1278
rfoot -16.9631 22.9751
rtoes -2.32533
lfemur -49.2587 -3.14308 -5.6044
ltibia 27.0753
lfoot -13.2672 -5.4214
ltoes -34.1579
816
root 4.40523 16.1509 -15.1816 -164.332 188.324 -187.366
lowerback -3.47758 4.17187 9.56247
upperback -6.24925 5.53048 0.524398
thorax -3.76664 2.37668 -4.72688
lowerneck 15.213 -9.47359 -32.0761
upperneck 2.01582 -19.5666 37.3751
head 5.67281 -11.3589 18.578
rclavicle -1.40131e-014 -4.64799e-014
rhumerus -33.3846 -7.61402 -87.686
rradius 26.8311
rwrist 26.4167
rhand -8.48956 -2.23638
rfingers 7.12502
rthumb 17.4377 -31.4742
lclavicle -1.40131e-014 -4.64799e-014
lhumerus -44.6971 3.98384 80.9365
lradius 29.9007
lwrist 26.9244
lhand -12.1738 -9.30063
lfingers 7.12502
lthumb 13.8895 20.2155
rfemur -0.384258 18.0949 28.1201
rtibia 18.0587
rfoot -16.3812 23.2781
rtoes -2.36436
lfemur -49.039 -2.9622 -6.05125
ltibia 27.3802
lfoot -13.0111 -5.36129
ltoes -34.5122
817
root 4.4311 16.1384 -15.0255 -164.326 188.45 -187.382
lowerback -3.66413 4.26109 9.61221
upperback -6.31454 5.62969 0.503677
thorax -3.71095 2.42445 -4.76017
lowerneck 15.2989 -9.49118 -32.0254
upperneck 2.03595 -19.6176 37.3913
head 5.68012 -11.392 18.5755
rclavicle 7.76297e-015 -1.65053e-014
rhumerus -33.5842 -7.78849 -87.6678
rradius 26.9216
rwrist 26.3826
rhand -8.46669 -2.16022
rfingers 7.12502
rthumb 17.4597 -31.3961
lclavicle 7.76297e-015 -1.65053e-014
lhumerus -45.0787 4.05674 80.6905
lradius 29.7331
lwrist 26.8561
lhand -12.3847 -9.16576
lfingers 7.12502
lthumb 13.6863 20.3642
rfemur 0.224415 18.0984 28.0596
rtibia 17.9717
rfoot -15.6952 23.6076
rtoes -2.38813
lfemur -48.8034 -2.81372 -6.4769
ltibia 27.8344
lfoot -12.5751 -5.34506
ltoes -34.6037
818
root 4.45775 16.128 -14.8653 -164.342 188.538 -187.387
lowerback -3.86554 4.33854 9.66146
upperback -6.3728 5.7107 0.481228
thorax -3.64192 2.46402 -4.79363
lowerneck 15.3779 -9.51397 -31.9727
upperneck 2.06511 -19.6764 37.407
head 5.69425 -11.4282 18.5702
rclavicle -2.32957e-014 -7.06307e-015
rhumerus -33.7907 -7.96905 -87.6331
rradius 27.0061
rwrist 26.3354
rhand -8.40532 -2.14168
rfingers 7.12502
rthumb 17.5188 -31.3723
lclavicle -2.32957e-014 -7.06307e-015
lhumerus -45.4744 4.12118 80.455
lradius 29.6047
lwrist 26.8329
lhand -12.6114 -9.04905
lfingers 7.12502
lthumb 13.4677 20.4955
rfemur 0.87919 18.0715 28.0051
rtibia 17.8459
rfoot -14.8985 23.9354
rtoes -2.46418
lfemur -48.5719 -2.70873 -6.91033
ltibia 28.4251
lfoot -11.9332 -5.47811
ltoes -34.3878
819
root 4.48427 16.1205 -14.7017 -164.376 188.607 -187.384
lowerback -4.07452 4.40399 9.69885
upperback -6.43279 5.77488 0.460638
thorax -3.5741 2.49558 -4.8184
lowerneck 15.4676 -9.5302 -31.9166
upperneck 2.10836 -19.7309 37.4183
head 5.70738 -11.4629 18.565
rclavicle -7.76834e-014 -2.38852e-014
rhumerus -34.0244 -8.16928 -87.5675
rradius 27.0735
rwrist 26.32
rhand -8.30429 -2.09903
rfingers 7.12502
rthumb 17.616 -31.321
lclavicle -7.76834e-014 -2.38852e-014
lhumerus -45.8953 4.17653 80.2327
lradius 29.5086
lwrist 26.8693
lhand -12.8485 -8.9706
lfingers 7.12502
lthumb 13.2392 20.589
rfemur 1.57104 18.0387 27.9541
rtibia 17.69
rfoot -13.9792 24.2602
rtoes -2.59729
lfemur -48.3567 -2.64352 -7.33543
ltibia 29.1242
lfoot -11.1223 -5.8054
ltoes -33.7587
820
root 4.51116 16.1156 -14.5354 -164.413 188.666 -187.369
lowerback -4.29408 4.46453 9.72196
upperback -6.49857 5.83153 0.436511
thorax -3.50845 2.52361 -4.83844
lowerneck 15.5619 -9.54392 -31.8622
upperneck 2.1688 -19.7873 37.4254
head 5.72486 -11.4989 18.5592
rclavicle -8.93706e-015 1.40019e-014
rhumerus -34.2756 -8.40303 -87.4682
rradius 27.1198
rwrist 26.3393
rhand -8.18432 -2.04856
rfingers 7.12502
rthumb 17.7315 -31.2601
lclavicle -8.93706e-015 1.40019e-014
lhumerus -46.3272 4.22858 80.0208
lradius 29.4291
lwrist 26.9618
lhand -13.0907 -8.95208
lfingers 7.12502
lthumb 13.0057 20.6225
rfemur 2.23854 18.0126 27.8875
rtibia 17.5623
rfoot -12.9086 24.5979
rtoes -2.75011
lfemur -48.1823 -2.60029 -7.75822
ltibia 29.892
lfoot -10.1833 -6.34445
ltoes -32.7277
